<svg width="24" height="24" viewBox="0 0 24 24" fill="none" xmlns="http://www.w3.org/2000/svg">
<rect width="24" height="24" rx="12" fill="#DEDEDE"/>
<path d="M15.125 7C15.125 7.8288 14.7958 8.62366 14.2097 9.20971C13.6237 9.79576 12.8288 10.125 12 10.125C11.1712 10.125 10.3764 9.79576 9.79031 9.20971C9.20426 8.62366 8.87502 7.8288 8.87502 7C8.87502 6.1712 9.20426 5.37634 9.79031 4.79029C10.3764 4.20424 11.1712 3.875 12 3.875C12.8288 3.875 13.6237 4.20424 14.2097 4.79029C14.7958 5.37634 15.125 6.1712 15.125 7ZM5.75085 18.765C5.77763 17.1253 6.4478 15.5618 7.61684 14.4117C8.78587 13.2616 10.3601 12.6171 12 12.6171C13.6399 12.6171 15.2142 13.2616 16.3832 14.4117C17.5522 15.5618 18.2224 17.1253 18.2492 18.765C16.2887 19.664 14.1568 20.1279 12 20.125C9.77002 20.125 7.65335 19.6383 5.75085 18.765Z" stroke="#757575" stroke-width="1.5" stroke-linecap="round" stroke-linejoin="round"/>
</svg>
