<svg width="24" height="24" viewBox="0 0 24 24" fill="none" xmlns="http://www.w3.org/2000/svg">
<path d="M11.1037 3.81663C11.4705 3.07346 12.5303 3.07346 12.8971 3.81663L14.8579 7.78909C15.0035 8.08394 15.2847 8.2884 15.61 8.33595L19.9966 8.97712C20.8165 9.09696 21.1433 10.1048 20.5497 10.683L17.3772 13.773C17.1413 14.0027 17.0336 14.3339 17.0893 14.6584L17.8378 19.0226C17.9779 19.8396 17.1204 20.4626 16.3868 20.0767L12.4658 18.0148C12.1745 17.8615 11.8263 17.8615 11.5349 18.0148L7.61402 20.0767C6.88039 20.4625 6.02284 19.8396 6.16296 19.0226L6.91148 14.6584C6.96714 14.3339 6.85947 14.0027 6.6236 13.773L3.45107 10.683C2.85747 10.1048 3.18426 9.09696 4.00417 8.97712L8.39076 8.33595C8.71611 8.2884 8.9973 8.08394 9.14284 7.78909L11.1037 3.81663Z" fill="#FDC102"/>
</svg>
