<svg width="20" height="20" viewBox="0 0 20 20" fill="none" xmlns="http://www.w3.org/2000/svg">
<path d="M5.254 16.494L5.978 16.917C7.19894 17.6291 8.58759 18.0029 10.001 18C11.5832 18 13.13 17.5308 14.4456 16.6518C15.7612 15.7727 16.7865 14.5233 17.392 13.0615C17.9975 11.5997 18.156 9.99113 17.8473 8.43928C17.5386 6.88743 16.7767 5.46197 15.6579 4.34315C14.539 3.22433 13.1136 2.4624 11.5617 2.15372C10.0099 1.84504 8.40134 2.00346 6.93953 2.60896C5.47772 3.21447 4.22829 4.23984 3.34924 5.55544C2.47019 6.87103 2.001 8.41775 2.001 10C1.99808 11.4139 2.37227 12.8029 3.085 14.024L3.507 14.748L2.854 17.149L5.254 16.494ZM0.00499826 20L1.357 15.032C0.466091 13.5049 -0.00195419 11.768 0.000998072 10C0.000998072 4.477 4.478 0 10.001 0C15.524 0 20.001 4.477 20.001 10C20.001 15.523 15.524 20 10.001 20C8.23378 20.0029 6.49765 19.5352 4.971 18.645L0.00499826 20ZM6.392 5.308C6.526 5.298 6.661 5.298 6.795 5.304C6.849 5.308 6.903 5.314 6.957 5.32C7.116 5.338 7.291 5.435 7.35 5.569C7.648 6.245 7.938 6.926 8.218 7.609C8.28 7.761 8.243 7.956 8.125 8.146C8.065 8.243 7.971 8.379 7.862 8.518C7.749 8.663 7.506 8.929 7.506 8.929C7.506 8.929 7.407 9.047 7.445 9.194C7.459 9.25 7.505 9.331 7.547 9.399L7.606 9.494C7.862 9.921 8.206 10.354 8.626 10.762C8.746 10.878 8.863 10.997 8.989 11.108C9.457 11.521 9.987 11.858 10.559 12.108L10.564 12.11C10.649 12.147 10.692 12.167 10.816 12.22C10.878 12.246 10.942 12.268 11.007 12.286C11.0742 12.3031 11.1449 12.2999 11.2102 12.2767C11.2756 12.2536 11.3326 12.2116 11.374 12.156C12.098 11.279 12.164 11.222 12.17 11.222V11.224C12.2203 11.1771 12.2801 11.1415 12.3452 11.1196C12.4104 11.0977 12.4796 11.09 12.548 11.097C12.608 11.101 12.669 11.112 12.725 11.137C13.256 11.38 14.125 11.759 14.125 11.759L14.707 12.02C14.805 12.067 14.894 12.178 14.897 12.285C14.901 12.352 14.907 12.46 14.884 12.658C14.852 12.917 14.774 13.228 14.696 13.391C14.6425 13.5022 14.5716 13.6042 14.486 13.693C14.3851 13.7989 14.2746 13.8953 14.156 13.981C14.074 14.043 14.031 14.071 14.031 14.071C13.9066 14.1499 13.7788 14.2233 13.648 14.291C13.3905 14.4278 13.1062 14.5063 12.815 14.521C12.63 14.531 12.445 14.545 12.259 14.535C12.251 14.535 11.691 14.448 11.691 14.448C10.2693 14.074 8.95439 13.3735 7.851 12.402C7.625 12.203 7.415 11.989 7.201 11.776C6.313 10.891 5.64 9.936 5.231 9.034C5.02271 8.5915 4.91025 8.10999 4.901 7.621C4.89724 7.01375 5.09606 6.42257 5.466 5.941C5.539 5.847 5.608 5.749 5.727 5.636C5.853 5.516 5.934 5.452 6.021 5.408C6.13667 5.35003 6.26286 5.31602 6.392 5.308Z" fill="black"/>
</svg>
