<svg width="118" height="36" viewBox="0 0 118 36" fill="none" xmlns="http://www.w3.org/2000/svg">
<path d="M15.75 13.5V16.125C15.8495 16.125 15.9448 16.1645 16.0152 16.2348C16.0855 16.3052 16.125 16.4005 16.125 16.5C16.125 16.5995 16.0855 16.6948 16.0152 16.7652C15.9448 16.8355 15.8495 16.875 15.75 16.875C15.6505 16.875 15.5552 16.8355 15.4848 16.7652C15.4145 16.6948 15.375 16.5995 15.375 16.5C15.375 16.4005 15.4145 16.3052 15.4848 16.2348C15.5552 16.1645 15.6505 16.125 15.75 16.125V13.5H8.25V16.125C8.34946 16.125 8.44484 16.1645 8.51516 16.2348C8.58549 16.3052 8.625 16.4005 8.625 16.5C8.625 16.5995 8.58549 16.6948 8.51516 16.7652C8.44484 16.8355 8.34946 16.875 8.25 16.875C8.15054 16.875 8.05516 16.8355 7.98483 16.7652C7.91451 16.6948 7.875 16.5995 7.875 16.5C7.875 16.4005 7.91451 16.3052 7.98483 16.2348C8.05516 16.1645 8.15054 16.125 8.25 16.125V13.5H5.513C5.23503 13.4999 4.96688 13.6028 4.76025 13.7888C4.55363 13.9747 4.42316 14.2306 4.394 14.507L3.13 26.507C3.11345 26.6639 3.13009 26.8226 3.17885 26.9726C3.22761 27.1227 3.3074 27.2608 3.41302 27.3781C3.51865 27.4953 3.64775 27.589 3.79195 27.6531C3.93614 27.7171 4.09221 27.7502 4.25 27.75H19.75C20.419 27.75 20.939 27.172 20.869 26.507L19.606 14.507C19.546 13.935 19.063 13.5 18.487 13.5H15.75Z" fill="#1E90FF"/>
<path d="M15.75 16.5V13.5M8.25 16.5V13.5M8.25 16.125C8.15054 16.125 8.05516 16.1645 7.98483 16.2348C7.91451 16.3052 7.875 16.4005 7.875 16.5C7.875 16.5995 7.91451 16.6948 7.98483 16.7652C8.05516 16.8355 8.15054 16.875 8.25 16.875C8.34946 16.875 8.44484 16.8355 8.51516 16.7652C8.58549 16.6948 8.625 16.5995 8.625 16.5C8.625 16.4005 8.58549 16.3052 8.51516 16.2348C8.44484 16.1645 8.34946 16.125 8.25 16.125ZM8.25 16.125V13.5M15.75 16.125C15.6505 16.125 15.5552 16.1645 15.4848 16.2348C15.4145 16.3052 15.375 16.4005 15.375 16.5C15.375 16.5995 15.4145 16.6948 15.4848 16.7652C15.5552 16.8355 15.6505 16.875 15.75 16.875C15.8495 16.875 15.9448 16.8355 16.0152 16.7652C16.0855 16.6948 16.125 16.5995 16.125 16.5C16.125 16.4005 16.0855 16.3052 16.0152 16.2348C15.9448 16.1645 15.8495 16.125 15.75 16.125ZM15.75 16.125V13.5M15.75 13.5H8.25M15.75 13.5H18.487C19.063 13.5 19.546 13.935 19.606 14.507L20.869 26.507C20.939 27.172 20.419 27.75 19.75 27.75H4.25C4.09221 27.7502 3.93614 27.7171 3.79195 27.6531C3.64775 27.589 3.51865 27.4953 3.41302 27.3781C3.3074 27.2608 3.22761 27.1227 3.17885 26.9726C3.13009 26.8226 3.11345 26.6639 3.13 26.507L4.394 14.507C4.42316 14.2306 4.55363 13.9747 4.76025 13.7888C4.96688 13.6028 5.23503 13.4999 5.513 13.5H8.25M15.75 13.5V12C15.75 11.0054 15.3549 10.0516 14.6516 9.34835C13.9484 8.64509 12.9946 8.25 12 8.25C11.0054 8.25 10.0516 8.64509 9.34835 9.34835C8.64509 10.0516 8.25 11.0054 8.25 12V13.5" stroke="#1E90FF" stroke-width="2" stroke-linecap="round" stroke-linejoin="round"/>
<path d="M45.608 9.152V12.44H41.144V26H37.04V12.44H32.576V9.152H45.608ZM58.1557 23.024H51.8677L50.8597 26H46.5637L52.6597 9.152H57.4117L63.5077 26H59.1637L58.1557 23.024ZM57.0997 19.856L55.0117 13.688L52.9477 19.856H57.0997ZM80.435 26H76.331L69.467 15.608V26H65.363V9.152H69.467L76.331 19.592V9.152H80.435V26ZM89.7219 9.152C91.4979 9.152 93.0499 9.504 94.3779 10.208C95.7059 10.912 96.7299 11.904 97.4499 13.184C98.1859 14.448 98.5539 15.912 98.5539 17.576C98.5539 19.224 98.1859 20.688 97.4499 21.968C96.7299 23.248 95.6979 24.24 94.3539 24.944C93.0259 25.648 91.4819 26 89.7219 26H83.4099V9.152H89.7219ZM89.4579 22.448C91.0099 22.448 92.2179 22.024 93.0819 21.176C93.9459 20.328 94.3779 19.128 94.3779 17.576C94.3779 16.024 93.9459 14.816 93.0819 13.952C92.2179 13.088 91.0099 12.656 89.4579 12.656H87.5139V22.448H89.4579ZM111.335 23.024H105.047L104.039 26H99.7434L105.839 9.152H110.591L116.687 26H112.343L111.335 23.024ZM110.279 19.856L108.191 13.688L106.127 19.856H110.279Z" fill="black"/>
</svg>
